<?xml version="1.0" encoding="UTF-8"?>
<svg width="880px" height="440px" viewBox="0 0 880 440" version="1.1" xmlns="http://www.w3.org/2000/svg" xmlns:xlink="http://www.w3.org/1999/xlink" style="background: #FFFFFF;">
    <g id="Page-1" stroke="none" stroke-width="1" fill="none" fill-rule="evenodd">
        <g id="Artboard">
            <text id="LARAVEL-JS-LOCALIZAT" font-family="Roboto-Bold, Roboto" font-size="48" font-weight="bold" letter-spacing="5" fill="#000000">
                <tspan x="82.2070312" y="233">LARAVEL JS LOCALIZATION</tspan>
            </text>
            <text id="CONVERT-YOUR-LARAVEL" font-family="Roboto-Bold, Roboto" font-size="20" font-weight="bold" letter-spacing="2.08333325" fill="#000000">
                <tspan x="41.4765649" y="299">CONVERT YOUR LARAVEL MESSAGES AND USE THEM IN THE FRONT-END!</tspan>
            </text>
            <text id="github.com/rmariuzzo" font-family="Roboto-Regular, Roboto" font-size="12" font-weight="normal" letter-spacing="1.25" fill="#7A7A7A">
                <tspan x="291.429688" y="415">github.com/rmariuzzo/laravel-js-localization</tspan>
            </text>
            <path d="M454.482826,144.665416 L436.550379,162.595599 C425.053235,174.097498 406.428169,174.103159 394.925365,162.595599 C383.423466,151.098455 383.417805,132.47339 394.925365,120.970585 L412.855548,103.038138 C413.117355,102.776403 413.383972,102.519523 413.655262,102.267631 C415.364732,100.681561 418.137242,101.813886 418.230754,104.143746 C418.274453,105.232146 418.366153,106.318961 418.50608,107.400568 C418.614988,108.24217 418.337171,109.086716 417.736932,109.686502 C414.005534,113.41541 400.723296,126.696968 400.687522,126.732742 C392.369312,135.055708 392.370897,148.511609 400.687522,156.832989 C409.010487,165.1512 422.466389,165.149615 430.787769,156.832989 L448.720216,138.900542 L448.801727,138.819031 C457.020992,130.515764 456.984538,117.066882 448.717952,108.800295 C446.85814,106.940483 444.738171,105.499095 442.472162,104.473639 C441.438329,104.005856 440.790769,102.964099 440.856883,101.83132 C440.9251,100.657477 441.14006,99.4967989 441.496745,98.3763809 C441.972906,96.8817839 443.654752,96.1210134 445.101122,96.7280448 C448.513948,98.1599236 451.709636,100.264722 454.482826,103.037912 C465.959592,114.514904 465.957555,133.190235 454.482826,144.665416 L454.482826,144.665416 Z M434.038025,123.482939 C436.811214,126.256129 440.006903,128.360927 443.419729,129.792806 C444.866098,130.399611 446.547945,129.63884 447.024105,128.14447 C447.380791,127.024052 447.595751,125.863373 447.663968,124.68953 C447.730082,123.556752 447.082295,122.514995 446.048689,122.047211 C443.78268,121.021983 441.662711,119.580594 439.802899,117.720556 C431.536312,109.453969 431.499859,96.0050864 439.719124,87.7018199 L439.800635,87.6203088 L457.733082,69.6878615 C466.054462,61.3712362 479.510364,61.3696513 487.833329,69.6878615 C496.149954,78.0092416 496.151539,91.4651432 487.833329,99.7881083 C487.797781,99.8236562 474.515543,113.105441 470.783919,116.834349 C470.18368,117.434361 469.905863,118.27868 470.014771,119.120283 C470.15455,120.201297 470.246415,121.287967 470.290097,122.377105 C470.383609,124.707191 473.156345,125.83929 474.865588,124.253219 C475.136933,124.001385 475.403551,123.744504 475.665303,123.482713 L493.595486,105.550266 C505.103046,94.0474609 505.097385,75.4223955 493.595486,63.9252514 C482.092908,52.417692 463.467616,52.4233525 451.970472,63.9252514 L434.038025,81.8554345 C422.563296,93.3308423 422.561258,112.006173 434.038025,123.482939 L434.038025,123.482939 Z" id="Shape-Copy" fill-opacity="0.300000012" fill="#E64636" fill-rule="nonzero" transform="translate(444.260425, 113.260425) rotate(-315.000000) translate(-444.260425, -113.260425) "></path>
            <path d="M446.195401,136.377991 L428.262954,154.308174 C416.765809,165.810073 398.140744,165.815734 386.637939,154.308174 C375.136041,142.81103 375.13038,124.185965 386.637939,112.68316 L404.568123,94.7507128 C404.829929,94.4889774 405.096546,94.2320981 405.367837,93.9802063 C407.077307,92.3941356 409.849817,93.526461 409.943328,95.8563206 C409.987027,96.9447206 410.078727,98.0315355 410.218655,99.1131429 C410.327563,99.9547452 410.049746,100.799291 409.449507,101.399077 C405.718109,105.127985 392.435871,118.409543 392.400097,118.445317 C384.081886,126.768282 384.083471,140.224184 392.400097,148.545564 C400.723062,156.863774 414.178963,156.862189 422.500344,148.545564 L440.432791,130.613117 L440.514302,130.531606 C448.733567,122.228339 448.697113,108.779457 440.430527,100.51287 C438.570714,98.6530579 436.450746,97.2116695 434.184737,96.1862143 C433.150904,95.718431 432.503343,94.6766735 432.569458,93.5438953 C432.637675,92.3700523 432.852635,91.2093737 433.20932,90.0889557 C433.685481,88.5943587 435.367327,87.8335882 436.813697,88.4406197 C440.226522,89.8724984 443.422211,91.9772968 446.195401,94.7504864 C457.672167,106.227479 457.670129,124.90281 446.195401,136.377991 L446.195401,136.377991 Z M425.7506,115.195514 C428.523789,117.968704 431.719478,120.073502 435.132304,121.505381 C436.578673,122.112186 438.260519,121.351415 438.73668,119.857045 C439.093366,118.736627 439.308326,117.575948 439.376543,116.402105 C439.442657,115.269327 438.79487,114.227569 437.761264,113.759786 C435.495254,112.734557 433.375286,111.293169 431.515474,109.43313 C423.248887,101.166544 423.212434,87.7176613 431.431699,79.4143948 L431.51321,79.3328837 L449.445657,61.4004363 C457.767037,53.083811 471.222939,53.0822261 479.545904,61.4004363 C487.862529,69.7218164 487.864114,83.1777181 479.545904,91.5006831 C479.510356,91.536231 466.228118,104.818016 462.496494,108.546923 C461.896255,109.146936 461.618438,109.991255 461.727346,110.832858 C461.867124,111.913871 461.95899,113.000542 462.002672,114.08968 C462.096183,116.419766 464.86892,117.551865 466.578163,115.965794 C466.849508,115.713959 467.116126,115.457079 467.377878,115.195288 L485.308061,97.2628404 C496.81562,85.7600358 496.80996,67.1349703 485.308061,55.6378263 C473.805483,44.1302669 455.180191,44.1359274 443.683047,55.6378263 L425.7506,73.5680094 C414.275871,85.0434172 414.273833,103.718748 425.7506,115.195514 L425.7506,115.195514 Z" id="Shape-Copy-2" fill-opacity="0.300000012" fill="#F0DB5F" fill-rule="nonzero" transform="translate(435.973000, 104.973000) rotate(-315.000000) translate(-435.973000, -104.973000) "></path>
            <path d="M449.997873,139.445806 L432.68736,156.754133 C421.588961,167.857123 403.609851,167.862587 392.505988,156.754133 C381.402999,145.655734 381.397535,127.676625 392.505988,116.572761 L409.814315,99.2622488 C410.067042,99.0095909 410.324412,98.7616207 410.586294,98.518465 C412.236475,96.9874026 414.912829,98.0804566 415.003097,100.329512 C415.045281,101.380164 415.1338,102.429286 415.268875,103.473381 C415.374006,104.285795 415.105824,105.10105 414.526403,105.680034 C410.924417,109.279615 398.102835,122.100542 398.068301,122.135075 C390.038584,130.169382 390.040114,143.158605 398.068301,151.191383 C406.102609,159.2211 419.091832,159.21957 427.124609,151.191383 L444.435122,133.88087 L444.513806,133.802186 C452.44801,125.786894 452.41282,112.804446 444.432936,104.824562 C442.637626,103.029252 440.591183,101.637854 438.403763,100.647964 C437.405786,100.196404 436.780684,99.1907773 436.844506,98.0972862 C436.910356,96.9641546 437.117861,95.8437307 437.462176,94.7621712 C437.921823,93.3194099 439.545339,92.5850245 440.941546,93.1710028 C444.236007,94.553221 447.320863,96.5850206 449.997873,99.2620302 C461.076601,110.340977 461.074634,128.368608 449.997873,139.445806 L449.997873,139.445806 Z M430.262139,118.997982 C432.939149,121.674991 436.024005,123.706791 439.318466,125.089009 C440.714673,125.674769 442.338189,124.940384 442.797836,123.497841 C443.142151,122.416281 443.349656,121.295857 443.415506,120.162726 C443.479328,119.069235 442.854008,118.063608 441.856249,117.612048 C439.668829,116.622376 437.622386,115.230978 435.827076,113.43545 C427.847192,105.455566 427.812003,92.4731181 435.746206,84.4578262 L435.82489,84.379142 L453.135403,67.0686293 C461.16818,59.0404419 474.157403,59.0389119 482.191711,67.0686293 C490.219898,75.1014066 490.221428,88.0906296 482.191711,96.1249369 C482.157396,96.1592519 469.335814,108.980397 465.733609,112.579978 C465.154188,113.159181 464.886006,113.974217 464.991137,114.786631 C465.126068,115.830153 465.214747,116.879136 465.256915,117.9305 C465.347183,120.179774 468.023755,121.272609 469.673718,119.741547 C469.935652,119.498446 470.193023,119.250475 470.445697,118.997763 L487.754024,101.687251 C498.862477,90.5833872 498.857013,72.6042777 487.754024,61.5058785 C476.650379,50.3974253 458.671051,50.4028894 447.572652,61.5058785 L430.262139,78.8142056 C419.185378,89.8916223 419.183411,107.919254 430.262139,118.997982 L430.262139,118.997982 Z" id="Shape" fill="#000000" fill-rule="nonzero" transform="translate(440.130006, 109.130006) rotate(-315.000000) translate(-440.130006, -109.130006) "></path>
        </g>
    </g>
</svg>
